<svg width="166" height="19" viewBox="0 0 166 19" fill="none" xmlns="http://www.w3.org/2000/svg">
<path d="M17 4.73969C16.3625 5.04897 15.6896 5.24227 14.9812 5.35825C15.6896 4.89433 16.2563 4.15979 16.5042 3.27062C15.8313 3.69588 15.0875 4.00515 14.2729 4.19845C13.6354 3.46392 12.7146 3 11.7229 3C9.81042 3 8.25208 4.70103 8.25208 6.78866C8.25208 7.09794 8.2875 7.36856 8.35833 7.63918C5.48958 7.48454 2.90417 5.9768 1.16875 3.65722C0.885417 4.23711 0.708333 4.85567 0.708333 5.55155C0.708333 6.86598 1.31042 8.02577 2.26667 8.72165C1.7 8.68299 1.16875 8.52835 0.672917 8.25773V8.29639C0.672917 10.1521 1.87708 11.6985 3.47083 12.0464C3.1875 12.1237 2.86875 12.1624 2.55 12.1624C2.3375 12.1624 2.08958 12.1237 1.87708 12.0851C2.3375 13.5928 3.6125 14.7139 5.13542 14.7139C3.93125 15.7191 2.44375 16.3376 0.814583 16.3376C0.53125 16.3376 0.247917 16.3376 0 16.299C1.55833 17.3814 3.36458 18 5.34792 18C11.7583 18 15.2646 12.201 15.2646 7.17526C15.2646 7.02062 15.2646 6.82732 15.2646 6.67268C15.9375 6.1701 16.5396 5.51289 17 4.73969Z" fill="#161C2D"/>
<path d="M67 9.5573C66.9992 4.4726 63.0424 0.278485 57.9959 0.0132214C52.9495 -0.252042 48.5799 3.50441 48.0525 8.56134C47.5252 13.6183 51.0247 18.2055 56.016 19V12.3203H53.6043V9.5573H56.016V7.45142C56.016 5.0558 57.4344 3.73253 59.6039 3.73253C60.3164 3.74247 61.0272 3.80477 61.7307 3.91892V6.27153H60.5325C60.1189 6.21626 59.7028 6.35325 59.4017 6.64381C59.1006 6.93437 58.9471 7.34697 58.9847 7.76506V9.5573H61.6196L61.1981 12.3203H58.9847V19C63.6013 18.2651 67.0007 14.2603 67 9.5573Z" fill="#F64B4B"/>
<path fill-rule="evenodd" clip-rule="evenodd" d="M104.289 1.054C105.249 1.0105 105.556 1 108 1C110.444 1 110.751 1.0105 111.711 1.054C113.174 1.12075 114.458 1.47925 115.49 2.5105C116.521 3.54212 116.879 4.82687 116.946 6.28937C116.99 7.24937 117 7.55575 117 10C117 12.4443 116.99 12.7506 116.946 13.7106C116.879 15.1739 116.521 16.4583 115.49 17.4895C114.458 18.5211 113.173 18.8792 111.711 18.946C110.751 18.9895 110.444 19 108 19C105.556 19 105.249 18.9895 104.289 18.946C102.826 18.8792 101.542 18.5208 100.51 17.4895C99.4789 16.4579 99.1207 15.1731 99.054 13.7106C99.0105 12.7506 99 12.4443 99 10C99 7.55575 99.0105 7.24937 99.054 6.28937C99.1207 4.82612 99.4792 3.54175 100.51 2.5105C101.542 1.47887 102.827 1.12075 104.289 1.054ZM111.637 2.674C110.688 2.6305 110.403 2.6215 108 2.6215C105.597 2.6215 105.312 2.63087 104.363 2.674C103.339 2.72088 102.388 2.926 101.657 3.65725C100.926 4.3885 100.721 5.33913 100.674 6.36325C100.63 7.31238 100.622 7.597 100.622 10C100.622 12.403 100.631 12.6876 100.674 13.6368C100.721 14.6609 100.926 15.6115 101.657 16.3427C102.388 17.074 103.339 17.2791 104.363 17.326C105.312 17.3695 105.597 17.3785 108 17.3785C110.403 17.3785 110.688 17.3691 111.637 17.326C112.661 17.2791 113.611 17.074 114.343 16.3427C115.074 15.6115 115.279 14.6609 115.326 13.6368C115.37 12.6876 115.378 12.403 115.378 10C115.378 7.597 115.369 7.31238 115.326 6.36325C115.279 5.33913 115.074 4.3885 114.343 3.65725C113.611 2.926 112.661 2.72088 111.637 2.674Z" fill="#161C2D"/>
<path fill-rule="evenodd" clip-rule="evenodd" d="M103.908 10.4092C103.908 7.92403 105.923 5.90918 108.408 5.90918C110.894 5.90918 112.908 7.92366 112.908 10.4092C112.908 12.8947 110.894 14.9092 108.408 14.9092C105.923 14.9092 103.908 12.8943 103.908 10.4092ZM105.487 10.4092C105.487 12.0224 106.795 13.3303 108.408 13.3303C110.021 13.3303 111.329 12.0224 111.329 10.4092C111.329 8.79599 110.021 7.48805 108.408 7.48805C106.795 7.48805 105.487 8.79599 105.487 10.4092Z" fill="#161C2D"/>
<circle cx="112.501" cy="5.50022" r="1.22727" fill="#161C2D"/>
<path fill-rule="evenodd" clip-rule="evenodd" d="M148.75 1H165.25C165.663 1 166 1.3375 166 1.75V18.25C166 18.6625 165.663 19 165.25 19H148.75C148.338 19 148 18.6625 148 18.25V1.75C148 1.3375 148.338 1 148.75 1ZM150.662 16.3375H153.325V7.75H150.662V16.3375ZM152.012 6.5875C151.15 6.5875 150.475 5.9125 150.475 5.05C150.475 4.1875 151.15 3.5125 152.012 3.5125C152.875 3.5125 153.55 4.1875 153.55 5.05C153.55 5.875 152.875 6.5875 152.012 6.5875ZM160.675 16.3375H163.3V11.6125C163.3 9.2875 162.812 7.525 160.112 7.525C158.837 7.525 157.938 8.2375 157.6 8.9125H157.562V7.75H155.012V16.3375H157.675V12.1C157.675 10.975 157.9 9.8875 159.288 9.8875C160.675 9.8875 160.675 11.1625 160.675 12.175V16.3375Z" fill="#161C2D"/>
</svg>
