<svg width="79" height="79" viewBox="0 0 79 79" fill="none" xmlns="http://www.w3.org/2000/svg">
<rect opacity="0.1" width="79" height="79" rx="15" fill="#473BF0"/>
<path fill-rule="evenodd" clip-rule="evenodd" d="M30 31.6786C30 26.543 33.8233 21 40 21C46.1767 21 50 26.543 50 31.6786C50 39.2891 44.8092 44 40 44C35.1908 44 30 39.2891 30 31.6786ZM31.7025 32.5444C32.0642 38.6262 36.1725 42.3571 40 42.3571C43.8275 42.3571 47.935 38.627 48.2983 32.5468C45.8192 32.215 43.5025 31.1693 41.6433 29.5297C39.3467 31.5619 36.4175 32.6733 33.3092 32.6733C32.7783 32.6733 32.2433 32.6216 31.7025 32.5444Z" fill="#473BF0"/>
<path opacity="0.5" d="M54.9775 48.1827L46.3125 43C44.2817 44.7478 41.8542 45.7089 39.5 45.7089C37.1458 45.7089 34.7183 44.7478 32.6875 43L24.0225 48.1827C22.775 48.9287 22 50.2935 22 51.7439V58.1693C22 58.6287 22.3733 59 22.8333 59H38.6667V50.6931C38.6667 50.2337 39.0392 49.8624 39.5 49.8624C39.9608 49.8624 40.3333 50.2337 40.3333 50.6931V59H56.1667C56.6267 59 57 58.6287 57 58.1693V51.7439C57 50.2935 56.225 48.9287 54.9775 48.1827Z" fill="#473BF0"/>
</svg>
