<svg width="79" height="79" viewBox="0 0 79 79" fill="none" xmlns="http://www.w3.org/2000/svg">
<rect opacity="0.1" width="79" height="79" rx="15" fill="#161C2D"/>
<path d="M47.6414 32.359C45.5264 30.253 42.7634 29.2 40.0004 29.2V40L32.3594 47.641C36.5804 51.862 43.4114 51.862 47.6324 47.641C51.8534 43.42 51.8534 36.58 47.6414 32.359V32.359Z" fill="#161C2D"/>
<path opacity="0.5" fill-rule="evenodd" clip-rule="evenodd" d="M22 40C22 30.055 30.055 22 40 22C49.945 22 58 30.055 58 40C58 49.936 49.945 58 40 58C30.055 58 22 49.945 22 40ZM25.6 40C25.6 47.956 32.044 54.4 40 54.4C47.956 54.4 54.4 47.956 54.4 40C54.4 32.044 47.956 25.6 40 25.6C32.044 25.6 25.6 32.044 25.6 40Z" fill="#161C2D"/>
</svg>
