<svg width="79" height="79" viewBox="0 0 79 79" fill="none" xmlns="http://www.w3.org/2000/svg">
<rect opacity="0.1" width="79" height="79" rx="15" fill="#68D585"/>
<path opacity="0.5" d="M56.1643 39C54.6615 45.7571 47.3982 50.8988 38.6846 50.8988C37.4492 50.8988 36.2161 50.7875 35 50.5762C37.9877 53.1631 42.6134 54.468 47.3935 53.761L53.7916 56.9199C53.9005 56.9733 54.0187 57 54.1369 57C54.2783 57 54.4189 56.9619 54.5433 56.8864C54.7705 56.7476 54.9095 56.502 54.9095 56.2374V50.4191C56.9052 48.6315 58 46.3771 58 44.035C58 42.2443 57.3533 40.5146 56.1643 39Z" fill="#68D585"/>
<path d="M38.5 23C29.4014 23 22 28.8198 22 35.9737C22 38.7233 23.0851 41.3448 25.1429 43.5747V51.2368C25.1429 51.5017 25.2843 51.7466 25.5153 51.8863C25.6418 51.9618 25.7848 52 25.9286 52C26.0488 52 26.169 51.9733 26.2798 51.9199L33.6105 48.3597C35.2094 48.7497 36.8524 48.9474 38.5 48.9474C47.5986 48.9474 55 43.1275 55 35.9737C55 28.8198 47.5986 23 38.5 23Z" fill="#68D585"/>
</svg>
