<svg width="115" height="143" viewBox="0 0 115 143" fill="none" xmlns="http://www.w3.org/2000/svg">
<rect x="0.279297" y="16.2974" width="89.1187" height="64.5148" rx="4.89" fill="#263238"/>
<rect x="43.5449" y="13.3757" width="2.59275" height="127.374" rx="1.17" fill="#263238"/>
<path d="M42.0617 138.171H47.611C48.8111 138.171 49.784 139.139 49.784 140.332V140.597C49.784 140.637 49.7678 140.676 49.7389 140.705C49.7101 140.733 49.6709 140.75 49.6301 140.75H40.0426C39.9576 140.75 39.8887 140.681 39.8887 140.597V140.332C39.8887 139.139 40.8616 138.171 42.0617 138.171V138.171Z" fill="#263238"/>
<rect x="69.5527" y="14.6742" width="7.46114" height="0.463768" fill="#FF7171"/>
<rect x="62.8184" y="14.6742" width="2.28031" height="0.463768" fill="#FF7171"/>
<rect x="0.611328" y="16.2974" width="89.1187" height="64.5148" rx="4.89" fill="#FF7171"/>
<path opacity="0.7" d="M83.1784 18.6162C85.5091 18.6162 87.3984 20.5056 87.3984 22.8362V74.2733C87.3984 76.604 85.5091 78.4933 83.1784 78.4933H7.16301C4.83237 78.4933 2.943 76.604 2.943 74.2733V22.8362C2.943 20.5056 4.83236 18.6162 7.163 18.6162L83.1784 18.6162Z" fill="white"/>
<path opacity="0.2" d="M27.5128 47.7826C22.0753 47.2764 16.6154 47.0473 11.1543 47.0962C11.2056 39.7223 11.8678 31.7502 12.4507 23.9078L28.4828 24.9328C27.8626 34.0829 27.247 43.2609 27.5128 47.7826Z" fill="black"/>
<path d="M27.8214 47.4533C22.3841 46.9448 16.924 46.7157 11.4629 46.767C11.5142 39.3884 11.8546 31.7548 12.4375 23.9078L28.7961 24.5942C28.1852 33.7444 27.5696 42.927 27.8214 47.4533Z" fill="white"/>
<path opacity="0.2" d="M49.2906 63.4904L32.9367 64.2L32.2559 41.0069L48.2926 40.6313L49.2906 63.4904V63.4904Z" fill="black"/>
<path d="M32.252 41.0146L48.609 40.3072L49.6084 63.1633L33.2513 63.8707L32.252 41.0146Z" fill="white"/>
<path opacity="0.2" d="M85.7522 62.9385L69.5195 60.8099L72.905 37.8533L88.7599 40.2557L85.7522 62.9385V62.9385Z" fill="black"/>
<path d="M72.8975 37.8587L89.1292 39.9897L86.1187 62.6706L69.887 60.5396L72.8975 37.8587Z" fill="white"/>
<path opacity="0.2" d="M29.9478 79.7084C26.982 80.636 19.3436 80.7797 13.6265 80.4968C12.8105 73.3548 12.8944 65.3594 13.0996 57.3084L29.1364 57.0441C28.782 62.5722 29.0571 72.4087 29.9478 79.7084Z" fill="black"/>
<path d="M30.2727 79.3745C27.3022 80.3021 19.6639 80.4412 13.9514 80.1583C13.1414 72.5655 12.8578 64.9261 13.1027 57.2945L29.4613 56.6917C29.1022 62.2383 29.3773 72.0748 30.2727 79.3745Z" fill="white"/>
<path opacity="0.2" d="M70.1677 45.4638L53.7999 45.8209C53.2496 38.2058 53.4082 30.2429 53.618 22.6324H69.6641C69.4823 30.7252 69.6035 38.4469 70.1677 45.4638Z" fill="black"/>
<path d="M70.4883 45.1206L54.1204 45.4777C53.5732 37.8626 53.4085 30.2383 53.6261 22.6047L69.994 22.2476C69.8168 30.3913 69.9473 38.1084 70.4883 45.1206Z" fill="white"/>
<path d="M76.117 135.576L72.4863 134.61L73.7793 126.021L77.4099 126.987L76.117 135.576V135.576Z" fill="#FF8B7B"/>
<path d="M109.701 138.84H105.94L103.012 130.209H106.774L109.701 138.84V138.84Z" fill="#FF8B7B"/>
<path d="M105.439 138.408H110.026C110.179 138.409 110.311 138.515 110.344 138.664L111.089 141.979C111.123 142.142 111.081 142.312 110.973 142.44C110.865 142.569 110.705 142.641 110.536 142.638C109.061 142.615 107.988 142.526 106.128 142.526C104.985 142.526 101.537 142.647 99.963 142.647C98.389 142.647 98.1782 141.101 98.8247 140.957C101.72 140.33 103.903 139.467 104.83 138.636C104.999 138.49 105.216 138.409 105.439 138.408V138.408Z" fill="#263238"/>
<path d="M72.6266 134.202L76.5899 135.256C76.7383 135.296 76.8391 135.433 76.8335 135.585L76.6836 138.975C76.6785 139.141 76.5963 139.295 76.4607 139.394C76.3252 139.492 76.1515 139.522 75.9902 139.476C74.5848 139.072 72.5189 138.436 70.72 137.958C68.6165 137.401 66.7708 137.029 64.3066 136.375C62.8169 135.98 62.8075 134.374 63.4681 134.406C66.4756 134.545 68.8133 135.098 71.6756 134.248C71.982 134.145 72.3115 134.129 72.6266 134.202V134.202Z" fill="#263238"/>
<path d="M92.068 27.7132C90.8266 29.2593 89.5383 30.9214 88.3203 32.5511C87.1022 34.1807 85.9311 35.8661 84.8536 37.5561C84.3149 38.3964 83.823 39.2507 83.3498 40.1004L82.0568 42.6214L81.9491 42.8489C81.9491 42.8722 81.921 42.8907 81.9163 42.8861C81.91 42.8305 81.91 42.7745 81.9163 42.7189C81.9158 42.5753 81.9001 42.4322 81.8694 42.2918C81.853 42.2145 81.8311 42.1385 81.8039 42.0643C81.8039 42.0179 81.7711 41.9714 81.7523 41.925C81.729 41.8596 81.7009 41.7959 81.668 41.7347C81.5843 41.5788 81.4838 41.4325 81.3682 41.2982C81.2051 41.1149 81.0138 40.9582 80.8013 40.8339C80.586 40.7105 80.3519 40.6226 80.108 40.5739C79.9258 40.5405 79.7403 40.5281 79.5552 40.5368C79.3449 40.5466 79.1375 40.5905 78.9415 40.6668C78.8041 40.7138 78.6745 40.7811 78.5574 40.8664C78.4403 40.9547 78.4449 40.9686 78.4403 40.9779C78.4356 40.9872 78.4684 40.9779 78.4965 40.9779C78.6629 40.8656 78.8195 40.7398 78.9649 40.6018C79.143 40.4486 79.321 40.2814 79.499 40.105C80.2251 39.4132 80.9747 38.6518 81.757 37.9414L84.1228 39.4643C83.7434 40.5087 83.2862 41.5236 82.7549 42.5007C82.4656 43.0577 82.1236 43.5863 81.7336 44.0793C81.6615 44.1682 81.5849 44.2534 81.504 44.3347C81.3745 44.4692 81.2317 44.5905 81.0777 44.6968C80.9032 44.8169 80.7144 44.9151 80.5156 44.9893C80.2869 45.0735 80.047 45.1235 79.8035 45.1379C79.6027 45.1473 79.4014 45.1333 79.2039 45.0961C78.943 45.0455 78.6927 44.9513 78.4637 44.8175C78.2371 44.6864 78.0331 44.5203 77.8594 44.3254C77.7336 44.1827 77.6237 44.027 77.5314 43.8611C77.4986 43.7914 77.4612 43.7172 77.4331 43.6475L77.3722 43.485C77.3347 43.3643 77.3159 43.29 77.2972 43.2064C77.255 43.0018 77.2361 42.7931 77.241 42.5843C77.2438 42.3977 77.2594 42.2116 77.2878 42.0272C77.2878 41.8925 77.3253 41.7857 77.344 41.6836C77.3862 41.4793 77.4237 41.3122 77.4612 41.1497C77.6158 40.5136 77.7797 39.9797 77.9671 39.4411C78.1545 38.9025 78.3981 38.3639 78.637 37.8486C79.1055 36.8086 79.6208 35.8057 80.1642 34.84C81.2426 32.923 82.4216 31.0633 83.6965 29.2686C84.3242 28.3818 84.9707 27.5043 85.6359 26.6454C86.3012 25.7864 86.9758 24.9554 87.7206 24.0918L92.068 27.7132Z" fill="#FF8B7B"/>
<path d="M94.1116 24.9786C94.9174 28.4468 87.2298 37.3286 87.2298 37.3286L80.334 32.3236C81.8649 29.446 83.7024 26.7393 85.8151 24.2496C88.9725 20.7118 93.2262 21.1668 94.1116 24.9786Z" fill="#FF7171"/>
<path opacity="0.2" d="M94.1116 24.9786C94.9174 28.4468 87.2298 37.3286 87.2298 37.3286L80.334 32.3236C81.8649 29.446 83.7024 26.7393 85.8151 24.2496C88.9725 20.7118 93.2262 21.1668 94.1116 24.9786Z" fill="black"/>
<path opacity="0.2" d="M73.7793 126.021L73.1094 130.45L76.7447 131.416L77.4099 126.987L73.7793 126.021V126.021Z" fill="black"/>
<path opacity="0.2" d="M106.774 130.214H103.012L104.525 134.661H108.287L106.774 130.214V130.214Z" fill="black"/>
<path d="M110.934 24.4586C106.038 38.35 105.949 53.3929 105.401 56.4107C102.478 56.0254 91.4689 54.5536 85.4678 53.7504C84.1186 32.4211 90.0307 21.8539 90.0307 21.8539C90.0307 21.8539 91.333 21.6821 93.0944 21.6079C93.6472 21.6079 94.2422 21.5707 94.8606 21.5754C95.2025 21.5754 95.5492 21.5754 95.9006 21.5986C98.7453 21.8213 101.575 22.2057 104.375 22.75C104.905 22.8475 105.443 22.9589 105.963 23.075C106.483 23.1911 106.9 23.3025 107.369 23.4186C109.378 23.9246 110.934 24.4586 110.934 24.4586Z" fill="#FF7171"/>
<path opacity="0.2" d="M110.934 24.4586C106.038 38.35 105.949 53.3929 105.401 56.4107C102.478 56.0254 91.4689 54.5536 85.4678 53.7504C84.1186 32.4211 90.0307 21.8539 90.0307 21.8539C90.0307 21.8539 91.333 21.6821 93.0944 21.6079C93.6472 21.6079 94.2422 21.5707 94.8606 21.5754C95.2025 21.5754 95.5492 21.5754 95.9006 21.5986C98.7453 21.8213 101.575 22.2057 104.375 22.75C104.905 22.8475 105.443 22.9589 105.963 23.075C106.483 23.1911 106.9 23.3025 107.369 23.4186C109.378 23.9246 110.934 24.4586 110.934 24.4586Z" fill="black"/>
<path opacity="0.2" d="M106.351 30.8564C105.56 32.9504 106.178 38.7493 107.045 40.7272C107.354 38.6564 107.733 36.4836 108.211 34.255L106.351 30.8564Z" fill="black"/>
<path d="M81.7949 37.6721L84.7744 34.8864L86.7138 39.2414C85.612 40.3599 83.9059 40.6417 82.4976 39.9378L81.7949 37.6721Z" fill="#FF8B7B"/>
<path d="M86.9612 33.4379L88.4509 37.2914L86.7129 39.2182L84.7734 34.8632L86.9612 33.4379V33.4379Z" fill="#FF8B7B"/>
<path d="M104.82 13.1625C103.916 15.795 102.712 20.6746 104.375 22.7314C102.693 23.9943 100.524 25.4196 97.2731 25.0993C94.0219 24.7789 94.8886 22.6478 95.9005 21.5985C99.0392 21.2875 99.2641 19.0403 99.0205 16.8675L104.82 13.1625Z" fill="#FF8B7B"/>
<path d="M95.3248 20.8929C95.3248 20.1593 98.3699 19.5418 98.487 20.2382C98.6041 20.9346 97.5501 21.1668 97.8827 22.0954C98.2153 23.0239 101.284 23.1168 102.511 21.8029C103.326 20.9254 103.584 20.0432 104.619 20.6236C105.655 21.2039 106.901 22.0164 106.217 23.2932C105.533 24.57 101.673 27.5879 98.1591 26.8125C94.6456 26.0371 93.6665 24.1661 94.3504 23.3536C94.9455 22.6654 95.2888 21.7984 95.3248 20.8929Z" fill="#FF7171"/>
<path opacity="0.2" d="M102.455 14.6761L99.0215 16.8675C99.0881 17.3723 99.1084 17.882 99.0824 18.3904C100.479 18.3333 101.754 17.5874 102.479 16.4032C102.872 15.6557 102.741 14.8061 102.455 14.6761Z" fill="black"/>
<path d="M105.388 8.51963C105.055 12.2061 105.046 14.3789 103.111 16.2221C100.202 19.0078 95.6532 17.1507 94.8708 13.4643C94.1681 10.1261 94.8334 4.64284 98.5155 3.29641C100.165 2.67372 102.022 2.94272 103.423 4.00717C104.823 5.07163 105.567 6.77944 105.388 8.51963Z" fill="#FF8B7B"/>
<path d="M105.674 5.57144C102.938 5.36716 102.708 10.075 104.971 12.0993C107.707 11.0361 111.53 5.98466 105.674 5.57144Z" fill="#263238"/>
<path d="M102.964 6.30497C101.362 3.79783 98.2796 7.77211 96.757 5.03283C95.8435 3.38461 94.2835 5.17211 93.3325 4.18319C92.3815 3.19426 93.8525 0.538544 94.8457 0.301758C94.2882 0.900686 94.1805 3.04104 95.8529 1.98247C97.5253 0.923901 98.7246 -0.171814 100.772 1.6064C102.819 3.38462 104.96 -0.190385 106.838 2.53497C108.487 4.90283 104.862 9.28569 102.964 6.30497Z" fill="#263238"/>
<path d="M106.062 5.91501C105.623 5.91341 105.186 5.84289 104.769 5.70609C104.677 5.67788 104.626 5.58122 104.654 5.49019C104.683 5.39916 104.78 5.34824 104.872 5.37644C106.071 5.75251 107.238 5.55287 107.772 4.8843C108.189 4.3643 108.156 3.6493 107.692 2.87394C107.643 2.79189 107.67 2.68588 107.753 2.63716C107.836 2.58844 107.943 2.61546 107.992 2.69751C108.531 3.58894 108.55 4.46644 108.048 5.09787C107.547 5.65677 106.815 5.95777 106.062 5.91501Z" fill="#263238"/>
<path d="M106.953 12.6379C106.429 13.4091 105.619 13.9446 104.699 14.1282C103.477 14.3557 102.971 13.2507 103.397 12.1596C103.781 11.18 104.882 9.88 106.067 10.14C107.252 10.4 107.585 11.6814 106.953 12.6379Z" fill="#FF8B7B"/>
<path d="M71.7695 129.127L77.9158 130.761C77.9158 130.761 83.767 109.284 85.6175 97.7972C86.1796 94.3104 87.4351 89.4818 88.953 84.3329C90.8643 77.8329 93.1926 70.8314 95.0805 65.3482C97.0762 59.5725 98.5706 55.4914 98.5706 55.4914L85.4535 53.7411C85.4535 53.7411 75.4704 84.0729 74.3461 95.3922C73.189 107.171 71.7695 129.127 71.7695 129.127Z" fill="#263238"/>
<path opacity="0.2" d="M88.9522 84.3421C90.8636 77.8421 93.1919 70.8407 95.0798 65.3574L93.918 62.3535C90.3904 65.9935 88.7367 77.8374 88.9522 84.3421Z" fill="black"/>
<path d="M92.5373 54.6975C92.5373 54.6975 91.8908 86.6264 92.7716 97.5093C93.7413 109.432 102.755 133.798 102.755 133.798H109.641C109.641 133.798 105.045 111.512 103.64 99.905C102.033 86.7193 105.401 56.4014 105.401 56.4014L92.5373 54.6975Z" fill="#263238"/>
<path d="M101.93 133.946H110.039V131.546L100.975 131.388L101.93 133.946V133.946Z" fill="#FF7171"/>
<path d="M70.959 129.062L78.2858 131.012L78.9229 128.667L71.1745 126.481L70.959 129.062V129.062Z" fill="#FF7171"/>
<path d="M99.7094 9.39711C99.7094 9.69426 99.536 9.93569 99.3346 9.93104C99.1331 9.9264 98.9832 9.67569 98.9926 9.3739C99.002 9.07211 99.1706 8.83533 99.3674 8.83997C99.5641 8.84461 99.7187 9.09533 99.7094 9.39711Z" fill="#263238"/>
<path d="M96.284 9.28573C96.284 9.58751 96.106 9.8243 95.9093 9.81965C95.7125 9.81501 95.5579 9.5643 95.5626 9.26715C95.5673 8.97001 95.7406 8.72394 95.9374 8.73323C96.1341 8.74251 96.2887 8.99787 96.284 9.28573Z" fill="#263238"/>
<path d="M97.3663 9.48071C96.98 10.3888 96.4676 11.239 95.8438 12.0064C96.2541 12.3175 96.7829 12.4315 97.2866 12.3175L97.3663 9.48071Z" fill="#FF5652"/>
<path d="M98.5423 13.1579C99.2264 13.1003 99.8558 12.764 100.28 12.2293C100.312 12.1953 100.312 12.1425 100.28 12.1086C100.261 12.0945 100.236 12.089 100.212 12.0934C100.188 12.0978 100.167 12.1116 100.154 12.1318C99.6624 12.7282 98.9099 13.0518 98.1347 13C98.1103 12.9987 98.0864 13.0074 98.0687 13.0241C98.051 13.0408 98.041 13.064 98.041 13.0882C98.041 13.1352 98.078 13.174 98.1253 13.1764C98.2646 13.1807 98.404 13.1745 98.5423 13.1579Z" fill="#263238"/>
<path d="M100.795 8.32932C100.826 8.3263 100.855 8.31506 100.88 8.29682C100.918 8.26974 100.944 8.22859 100.952 8.18244C100.96 8.13629 100.949 8.08891 100.922 8.05074C100.599 7.57999 100.067 7.29286 99.4931 7.28003C99.4459 7.28243 99.4016 7.30336 99.3699 7.3382C99.3383 7.37305 99.3219 7.41894 99.3245 7.46574C99.3257 7.51215 99.3458 7.5561 99.3802 7.58758C99.4146 7.61907 99.4604 7.63541 99.5072 7.63289V7.63289C99.9614 7.6479 100.38 7.87968 100.632 8.25503C100.669 8.30665 100.731 8.33486 100.795 8.32932V8.32932Z" fill="#263238"/>
<path d="M94.8557 8.08788C94.9143 8.08251 94.9657 8.04732 94.9916 7.99503C95.1887 7.58768 95.5729 7.30037 96.0222 7.22431C96.1098 7.20407 96.1683 7.12235 96.1588 7.03379C96.1493 6.94523 96.0746 6.87759 95.9848 6.8761C95.4173 6.96334 94.9289 7.32069 94.6777 7.83253C94.6549 7.87358 94.65 7.92207 94.6642 7.96678C94.6784 8.01149 94.7103 8.04853 94.7527 8.06931C94.7839 8.08684 94.8203 8.09339 94.8557 8.08788Z" fill="#263238"/>
<path fill-rule="evenodd" clip-rule="evenodd" d="M105.181 138.971C104.859 139.056 104.529 139.103 104.197 139.113C103.94 139.13 103.685 139.058 103.471 138.908C103.338 138.785 103.27 138.603 103.288 138.419C103.29 138.308 103.349 138.207 103.443 138.155C103.843 137.941 105 138.669 105.194 138.791C105.2 138.795 105.205 138.798 105.209 138.8C105.237 138.822 105.251 138.857 105.246 138.893C105.242 138.931 105.216 138.962 105.181 138.971ZM104.9 138.844C104.908 138.843 104.915 138.841 104.923 138.839V138.859C104.915 138.854 104.908 138.849 104.9 138.844ZM103.588 138.766C103.792 138.945 104.27 138.971 104.9 138.844C104.41 138.531 103.753 138.206 103.522 138.321C103.485 138.345 103.463 138.388 103.466 138.434C103.448 138.559 103.494 138.685 103.588 138.766Z" fill="#FF7171"/>
<path fill-rule="evenodd" clip-rule="evenodd" d="M105.213 138.928C105.196 138.933 105.178 138.933 105.161 138.928L105.119 138.933C104.73 138.724 103.981 137.907 104.061 137.489C104.087 137.356 104.205 137.261 104.342 137.261C104.479 137.241 104.617 137.282 104.721 137.373C105.157 137.726 105.25 138.803 105.25 138.849C105.255 138.881 105.24 138.912 105.213 138.928ZM104.604 137.508C104.548 137.456 104.474 137.428 104.398 137.429H104.36C104.229 137.443 104.229 137.498 104.229 137.521C104.182 137.744 104.66 138.38 105.049 138.673C105.024 138.249 104.869 137.842 104.604 137.508Z" fill="#FF7171"/>
<path fill-rule="evenodd" clip-rule="evenodd" d="M72.2102 134.55C72.1971 134.581 72.1685 134.602 72.1353 134.606L72.1212 134.61C71.5028 134.569 70.4254 134.443 70.1209 133.979C70.0291 133.841 70.0116 133.668 70.074 133.515C70.1033 133.421 70.1796 133.349 70.2755 133.324C70.7814 133.199 72.0463 134.323 72.1868 134.453C72.2143 134.477 72.2236 134.516 72.2102 134.55ZM71.8682 134.42C71.3623 133.979 70.6549 133.491 70.3551 133.491L70.3176 133.51C70.2794 133.52 70.2503 133.551 70.2427 133.589C70.1995 133.688 70.2101 133.801 70.2708 133.891C70.4394 134.146 71.0297 134.336 71.8682 134.42Z" fill="#FF7171"/>
<path fill-rule="evenodd" clip-rule="evenodd" d="M72.1579 134.606H72.1345C72.1117 134.608 72.0888 134.603 72.0689 134.592C71.6707 134.276 71.0242 133.273 71.2022 132.883C71.2444 132.79 71.3428 132.693 71.5864 132.73C71.7652 132.757 71.9247 132.856 72.0267 133.004C72.3512 133.451 72.2435 134.304 72.2186 134.501C72.2159 134.523 72.2141 134.537 72.2141 134.541C72.2079 134.571 72.1867 134.595 72.1579 134.606ZM71.5583 132.888H71.4646C71.3982 132.892 71.3759 132.922 71.3684 132.932C71.3674 132.933 71.3667 132.934 71.3662 132.934C71.2584 133.176 71.6847 133.942 72.0595 134.327C72.1276 133.907 72.0655 133.477 71.8815 133.092C71.8081 132.981 71.6905 132.907 71.5583 132.888Z" fill="#FF7171"/>
<path d="M111.913 27.3372C112.457 29.7561 112.916 32.1611 113.319 34.5939C113.721 37.0268 114.082 39.4643 114.363 41.9343L114.462 42.8629L114.518 43.4386C114.561 43.8895 114.52 44.3443 114.396 44.7804C114.229 45.3865 113.893 45.9337 113.426 46.3589C113.036 46.7064 112.572 46.9619 112.068 47.1064C111.482 47.2701 110.869 47.319 110.264 47.2504C109.478 47.1647 108.705 46.9903 107.959 46.7304C107.289 46.5029 106.671 46.2661 106.085 45.9829C104.91 45.4507 103.764 44.8572 102.652 44.2047C101.551 43.5593 100.497 42.8954 99.4473 42.1386L100.782 39.6732C103.054 40.4532 105.369 41.2889 107.589 41.8925C108.142 42.0457 108.69 42.1757 109.21 42.2686C109.645 42.367 110.09 42.4137 110.536 42.4079C110.672 42.4079 110.78 42.3475 110.564 42.3847C110.354 42.4383 110.162 42.5456 110.007 42.6957C109.763 42.9094 109.585 43.1859 109.491 43.4943C109.452 43.6352 109.428 43.78 109.421 43.9261C109.421 44.005 109.421 43.8797 109.398 43.8147L109.355 43.5918L109.187 42.7097C108.728 40.3511 108.259 37.9848 107.781 35.6107C107.313 33.2382 106.816 30.8518 106.376 28.4886L111.913 27.3372Z" fill="#FF8B7B"/>
<path d="M112.189 25.3732C114.644 27.9779 114.864 35.9775 114.864 35.9775L107.758 39.2971C107.758 39.2971 105.453 34.2132 105.378 29.6121C105.303 24.3936 109.73 22.75 112.189 25.3732Z" fill="#FF7171"/>
<path opacity="0.2" d="M112.189 25.3732C114.644 27.9779 114.864 35.9775 114.864 35.9775L107.758 39.2971C107.758 39.2971 105.453 34.2132 105.378 29.6121C105.303 24.3936 109.73 22.75 112.189 25.3732Z" fill="black"/>
<path d="M86.7134 35.0954C86.6727 35.095 86.6327 35.0855 86.5963 35.0675C86.485 35.0012 86.4476 34.8589 86.512 34.7472L90.2597 28.3354C90.3304 28.2391 90.463 28.2114 90.5669 28.2712C90.6707 28.3311 90.7121 28.459 90.6626 28.5675L86.9383 34.9793C86.8919 35.0575 86.8046 35.1025 86.7134 35.0954Z" fill="#263238"/>
<path d="M98.3407 52.9286L84.1789 50.8857C83.5812 50.7957 83.1207 50.3164 83.0592 49.7204L82.1223 30.3457C82.1082 30.0838 82.2191 29.8305 82.4216 29.6617C82.6242 29.4929 82.895 29.4282 83.1529 29.4868L97.3147 31.525C97.9125 31.6197 98.3728 32.0986 98.439 32.695L99.3526 52.0697C99.3651 52.3276 99.2567 52.5767 99.0588 52.7447C98.861 52.9127 98.5959 52.9805 98.3407 52.9286V52.9286Z" fill="white"/>
<path d="M98.0234 53.1236L83.8616 51.0714C83.2629 50.9818 82.8008 50.5028 82.7373 49.9061L81.8237 30.5314C81.8081 30.2699 81.9178 30.0164 82.1197 29.8473C82.3216 29.6783 82.5921 29.6135 82.8497 29.6725L97.0115 31.7107C97.6117 31.8008 98.0743 32.2822 98.1358 32.8807L99.0727 52.2507C99.0954 52.5197 98.9849 52.7829 98.7762 52.9565C98.5675 53.1301 98.2868 53.1924 98.0234 53.1236V53.1236Z" fill="#263238"/>
<path d="M101.054 39.7429L97.7228 37.8857L97.334 42.6307C97.334 42.6307 100.52 43.5872 101.218 41.9668L101.054 39.7429Z" fill="#FF8B7B"/>
<path d="M94.0117 38.7354L94.4802 42.2825L97.3332 42.6354L97.722 37.8904L94.0117 38.7354V38.7354Z" fill="#FF8B7B"/>
</svg>
