<svg width="37" height="37" viewBox="0 0 37 37" fill="none" xmlns="http://www.w3.org/2000/svg">
<path d="M18.5 0C18.0174 0 17.6957 0.321739 17.6957 0.804348V5.63043C17.6957 6.11304 18.0174 6.43478 18.5 6.43478C18.9826 6.43478 19.3043 6.11304 19.3043 5.63043V1.6087C28.2326 2.01087 35.3913 9.41087 35.3913 18.5C35.3913 27.8304 27.8304 35.3913 18.5 35.3913C9.16957 35.3913 1.6087 27.8304 1.6087 18.5C1.6087 18.0174 1.28696 17.6957 0.804348 17.6957C0.321739 17.6957 0 18.0174 0 18.5C0 28.7152 8.28478 37 18.5 37C28.7152 37 37 28.7152 37 18.5C37 8.28478 28.7152 0 18.5 0Z" fill="#D5D7DD"/>
<path d="M15.2525 20.8052C15.9733 21.5221 17.0144 22 18.0556 22C19.0968 22 20.1379 21.6017 20.8587 20.8052C22.3804 19.2918 22.3804 16.7428 20.8587 15.1497C19.5773 13.8753 9.40593 7.82153 8.20459 7.10464C7.88423 6.94533 7.48378 6.94533 7.24351 7.26395C7.00325 7.50291 6.92316 7.90119 7.08333 8.2198C7.88423 9.41462 13.971 19.5307 15.2525 20.8052Z" fill="#68D585"/>
</svg>
