<svg width="26" height="38" viewBox="0 0 26 38" fill="none" xmlns="http://www.w3.org/2000/svg">
<path fill-rule="evenodd" clip-rule="evenodd" d="M21.9375 0H4.0625C1.81996 0.00273114 0.00268622 1.85039 0 4.13043V33.8696C0.00268622 36.1496 1.81996 37.9973 4.0625 38H21.9375C24.18 37.9973 25.9973 36.1496 26 33.8696V4.13043C25.9973 1.85039 24.18 0.00273114 21.9375 0ZM24.375 31.3913C24.375 31.8475 24.0112 32.2174 23.5625 32.2174H2.4375C1.98877 32.2174 1.625 31.8475 1.625 31.3913V4.95652C1.625 4.50029 1.98877 4.13043 2.4375 4.13043H23.5625C24.0112 4.13043 24.375 4.50029 24.375 4.95652V31.3913Z" fill="#68D585"/>
</svg>
